# Blender v2.78 (sub 0) OBJ File: 'mapTesting.blend'
# www.blender.org
mtllib mapTestingOBJ.mtl
o Cube.005_Cube.004
v 9.000001 -0.000000 8.000000
v 9.000001 4.000000 8.000000
v 8.000001 -0.000000 8.000000
v 8.000001 4.000000 8.000000
v 8.999999 0.000000 -8.000000
v 8.999998 4.000000 -8.000000
v 7.999999 -0.000000 -8.000000
v 7.999999 4.000000 -8.000000
vt 0.3750 0.0000
vt 0.6250 0.0000
vt 0.6250 0.2500
vt 0.3750 0.2500
vt 0.6250 0.5000
vt 0.3750 0.5000
vt 0.6250 0.7500
vt 0.3750 0.7500
vt 0.6250 1.0000
vt 0.3750 1.0000
vt 0.1250 0.5000
vt 0.1250 0.7500
vt 0.8750 0.5000
vt 0.8750 0.7500
vn 0.0000 0.0000 1.0000
vn -1.0000 0.0000 0.0000
vn 0.0000 0.0000 -1.0000
vn 1.0000 0.0000 -0.0000
vn 0.0000 -1.0000 -0.0000
vn 0.0000 1.0000 0.0000
usemtl Wall_MAterial
s 1
f 1/1/1 2/2/1 4/3/1 3/4/1
f 3/4/2 4/3/2 8/5/2 7/6/2
f 7/6/3 8/5/3 6/7/3 5/8/3
f 5/8/4 6/7/4 2/9/4 1/10/4
f 3/11/5 7/6/5 5/8/5 1/12/5
f 8/5/6 4/13/6 2/14/6 6/7/6
o Cube.004_Cube.003
v -7.999999 -0.000000 8.000000
v -7.999999 4.000000 8.000000
v -8.999999 -0.000000 8.000000
v -8.999999 4.000000 8.000000
v -8.000001 0.000000 -8.000000
v -8.000002 4.000000 -8.000000
v -9.000001 -0.000000 -8.000000
v -9.000002 4.000000 -8.000000
vt 0.3750 0.0000
vt 0.6250 0.0000
vt 0.6250 0.2500
vt 0.3750 0.2500
vt 0.6250 0.5000
vt 0.3750 0.5000
vt 0.6250 0.7500
vt 0.3750 0.7500
vt 0.6250 1.0000
vt 0.3750 1.0000
vt 0.1250 0.5000
vt 0.1250 0.7500
vt 0.8750 0.5000
vt 0.8750 0.7500
vn 0.0000 0.0000 1.0000
vn -1.0000 0.0000 0.0000
vn 0.0000 0.0000 -1.0000
vn 1.0000 0.0000 -0.0000
vn 0.0000 -1.0000 -0.0000
vn 0.0000 1.0000 0.0000
usemtl Wall_MAterial
s 1
f 9/15/7 10/16/7 12/17/7 11/18/7
f 11/18/8 12/17/8 16/19/8 15/20/8
f 15/20/9 16/19/9 14/21/9 13/22/9
f 13/22/10 14/21/10 10/23/10 9/24/10
f 11/25/11 15/20/11 13/22/11 9/26/11
f 16/19/12 12/27/12 10/28/12 14/21/12
o Cube.003_Cube.005
v -8.000000 0.000000 -8.000000
v -8.000000 4.000000 -8.000001
v -8.000000 -0.000000 -9.000000
v -8.000000 4.000000 -9.000001
v 8.000000 0.000000 -8.000000
v 8.000000 4.000000 -8.000001
v 8.000000 -0.000000 -9.000000
v 8.000000 4.000000 -9.000001
vt 0.3750 0.0000
vt 0.6250 0.0000
vt 0.6250 0.2500
vt 0.3750 0.2500
vt 0.6250 0.5000
vt 0.3750 0.5000
vt 0.6250 0.7500
vt 0.3750 0.7500
vt 0.6250 1.0000
vt 0.3750 1.0000
vt 0.1250 0.5000
vt 0.1250 0.7500
vt 0.8750 0.5000
vt 0.8750 0.7500
vn -1.0000 0.0000 0.0000
vn 0.0000 -0.0000 -1.0000
vn 1.0000 0.0000 0.0000
vn 0.0000 0.0000 1.0000
vn 0.0000 -1.0000 0.0000
vn 0.0000 1.0000 -0.0000
usemtl Wall_MAterial
s 1
f 17/29/13 18/30/13 20/31/13 19/32/13
f 19/32/14 20/31/14 24/33/14 23/34/14
f 23/34/15 24/33/15 22/35/15 21/36/15
f 21/36/16 22/35/16 18/37/16 17/38/16
f 19/39/17 23/34/17 21/36/17 17/40/17
f 24/33/18 20/41/18 18/42/18 22/35/18
o Cube.002_Cube.001
v -8.000000 0.000000 9.000000
v -8.000000 4.000000 8.999999
v -8.000000 -0.000000 8.000000
v -8.000000 4.000000 8.000000
v 8.000000 0.000000 9.000000
v 8.000000 4.000000 8.999999
v 8.000000 -0.000000 8.000000
v 8.000000 4.000000 8.000000
vt 0.3750 0.0000
vt 0.6250 0.0000
vt 0.6250 0.2500
vt 0.3750 0.2500
vt 0.6250 0.5000
vt 0.3750 0.5000
vt 0.6250 0.7500
vt 0.3750 0.7500
vt 0.6250 1.0000
vt 0.3750 1.0000
vt 0.1250 0.5000
vt 0.1250 0.7500
vt 0.8750 0.5000
vt 0.8750 0.7500
vn -1.0000 0.0000 0.0000
vn 0.0000 -0.0000 -1.0000
vn 1.0000 0.0000 0.0000
vn 0.0000 0.0000 1.0000
vn 0.0000 -1.0000 0.0000
vn 0.0000 1.0000 -0.0000
usemtl Wall_MAterial
s 1
f 25/43/19 26/44/19 28/45/19 27/46/19
f 27/46/20 28/45/20 32/47/20 31/48/20
f 31/48/21 32/47/21 30/49/21 29/50/21
f 29/50/22 30/49/22 26/51/22 25/52/22
f 27/53/23 31/48/23 29/50/23 25/54/23
f 32/47/24 28/55/24 26/56/24 30/49/24
o Cube.001_Cube.002
v 8.000000 -0.000001 -8.000000
v 8.000000 -1.000001 -8.000000
v 8.000000 0.000001 8.000000
v 8.000000 -0.999999 8.000000
v -8.000000 -0.000001 -8.000000
v -8.000000 -1.000001 -8.000000
v -8.000000 0.000001 8.000000
v -8.000000 -0.999999 8.000000
vt 0.6250 0.5000
vt 0.8750 0.5000
vt 0.8750 0.7500
vt 0.6250 0.7500
vt 0.3750 0.7500
vt 0.6250 1.0000
vt 0.3750 1.0000
vt 0.3750 0.0000
vt 0.6250 0.0000
vt 0.6250 0.2500
vt 0.3750 0.2500
vt 0.1250 0.5000
vt 0.3750 0.5000
vt 0.1250 0.7500
vn 0.0000 1.0000 -0.0000
vn 0.0000 0.0000 1.0000
vn -1.0000 0.0000 0.0000
vn 0.0000 -1.0000 0.0000
vn 1.0000 0.0000 0.0000
vn 0.0000 0.0000 -1.0000
usemtl Material.001
s 1
f 33/57/25 37/58/25 39/59/25 35/60/25
f 36/61/26 35/60/26 39/62/26 40/63/26
f 40/64/27 39/65/27 37/66/27 38/67/27
f 38/68/28 34/69/28 36/61/28 40/70/28
f 34/69/29 33/57/29 35/60/29 36/61/29
f 38/67/30 37/66/30 33/57/30 34/69/30
